<svg xmlns="http://www.w3.org/2000/svg" viewBox="0 0 50 50" width="50" height="50">
  <path fill="#4caf50" d="M25 2C13.3 2 3.9 11.4 3.9 23.1c0 5.6 2.5 10.6 6.5 14.3L25 48l14.6-10.6c4-3.7 6.5-8.7 6.5-14.3C46.1 11.4 36.7 2 25 2zm0 40.1c-2.9-2.4-5.1-5.4-6.4-8.8-1.3 3.4-3.5 6.4-6.4 8.8l6.4-16.1c.3-.7.3-1.5 0-2.2-.3-.7-.8-1.3-1.4-1.7-.7-.4-1.4-.6-2.2-.6-1.6 0-3 1.4-3 3 0 1.1.5 2.1 1.4 2.7.4.3 1 .5 1.6.5.9 0 1.7-.3 2.2-1l6.4 16.1zm3-7.2c-.3.7-.3 1.5 0 2.2l6.4 16.1c1.9-2.4 3.1-5.4 3.8-8.8h-10.2zm-1.2-1.9h12.4c-.7-3.4-2.7-6.4-5.5-8.8l-6.9 8.8zm-1.6-10.8c-.6.4-1 1-1.4 1.7-.3.7-.3 1.5 0 2.2l6.4-16.1c-.5 2.4-1.7 4.4-3.4 6.1-.6.6-1.4 1-2.2 1-1.6 0-3-1.4-3-3 0-1.6 1.3-2.9 2.9-2.9.8 0 1.6.3 2.2.9.9 1 1.6 2.1 1.9 3.4l6.4 16.1c.3-.7.3-1.5 0-2.2-.3-.7-.8-1.3-1.4-1.7l-6.4-16.1zm1.6 2.8l6.9 8.8c2.7-2.4 4.7-5.4 5.5-8.8h-12.4zm1.2 1.9h10.2c-.7 3.4-2.7 6.4-5.5 8.8l-4.7-8.8z"/>
</svg>

